<?xml version="1.0" encoding="UTF-8"?>
<!DOCTYPE svg PUBLIC "-//W3C//DTD SVG 1.1//EN" "http://www.w3.org/Graphics/SVG/1.1/DTD/svg11.dtd">
<!-- Creator: CorelDRAW 2019 (64-Bit) -->
<svg xmlns="http://www.w3.org/2000/svg" xml:space="preserve" width="4.00694in" height="4.00694in" version="1.1" style="shape-rendering:geometricPrecision; text-rendering:geometricPrecision; image-rendering:optimizeQuality; fill-rule:evenodd; clip-rule:evenodd"
viewBox="0 0 56.85 56.85"
 xmlns:xlink="http://www.w3.org/1999/xlink"
 xmlns:xodm="http://www.corel.com/coreldraw/odm/2003">
 <defs>
  <style type="text/css">
   <![CDATA[
    .str0 {stroke:white;stroke-width:0.1;stroke-miterlimit:2.61313}
    .fil0 {fill:black}
    .fil2 {fill:#FF6501}
    .fil1 {fill:white}
   ]]>
  </style>
 </defs>
 <g id="Layer_x0020_1">
  <metadata id="CorelCorpID_0Corel-Layer"/>
  <circle class="fil0 str0" cx="28.42" cy="28.42" r="28.37"/>
  <g id="_2079274258752">
   <path class="fil1" d="M32.8 37.26c-2.31,-1.41 -4.8,-3.49 -6.19,-5.65 -2.51,-3.91 -0.71,-5.95 1.42,-8.07 2.54,-2.54 7.21,-13.68 9.32,-14.73l8.71 0 -7.46 13.3c-5.01,8.96 -5.79,7.71 -5.8,15.15z"/>
   <path class="fil2" d="M45.47 47.84c-2.93,0.08 -12.86,0.59 -14.52,-0.45 -3.87,-2.44 -13.38,-11.86 -11.72,-18.69 0.8,-3.27 4.93,-6.12 8.75,-6.56 -8.46,5.25 -6.7,9.45 0.5,15.34 5.92,4.84 15.08,8.73 17,10.36z"/>
   <path class="fil1" d="M27.06 20.8c-1.19,0.54 -6.45,1.89 -7.9,2.33l-8.37 -14.26 9.46 -0.03 6.81 11.96z"/>
   <path class="fil1" d="M24.25 47.89l-6.6 -0.03c-2.28,-2.92 -5.94,-6.83 -5.54,-12.68 0.35,-5.02 4.65,-9.13 8.18,-10.42 -3.06,3.3 -6.1,6.15 -3.31,12.59 2.45,5.67 5.61,7.66 7.26,10.54z"/>
  </g>
 </g>
</svg>
